<svg fill="none" height="25" viewBox="0 0 27 25" width="27" xmlns="http://www.w3.org/2000/svg">
    <path
        d="M26.0824 12.5C26.0824 19.1083 20.4954 24.5 13.56 24.5C6.62457 24.5 1.0376 19.1083 1.0376 12.5C1.0376 5.89168 6.62457 0.5 13.56 0.5C20.4954 0.5 26.0824 5.89168 26.0824 12.5Z"
        stroke="#DEDEDE" />
    <path
        d="M18.329 10.9177C18.329 10.9177 17.9754 15.1271 17.7703 16.9002C17.6727 17.7471 17.1277 18.2433 16.235 18.2589C14.5362 18.2883 12.8355 18.2902 11.1374 18.2558C10.2785 18.2389 9.74267 17.7364 9.64695 16.9046C9.44055 15.1158 9.08894 10.9177 9.08894 10.9177M19.2297 8.89988H8.18799M17.1021 8.89986C16.5909 8.89986 16.1508 8.55299 16.0505 8.07236L15.8923 7.31236C15.7946 6.96174 15.4639 6.71924 15.0869 6.71924H12.3307C11.9537 6.71924 11.6229 6.96174 11.5252 7.31236L11.367 8.07236C11.2667 8.55299 10.8266 8.89986 10.3155 8.89986"
        stroke="#8F959E" stroke-linecap="round" stroke-linejoin="round" stroke-width="1.3" />
</svg>
